<svg id="Flat" height="512" viewBox="0 0 512 512" width="512" xmlns="http://www.w3.org/2000/svg"><path d="m24 40h464v304h-464z" fill="#e9eef2"/><path d="m24 232 88-48 120 96v64h-208z" fill="#35a872"/><path d="m120 344 240-192 128 104v88z" fill="#3dc285"/><circle cx="216" cy="128" fill="#f7b030" r="40"/><path d="m415.439 440h1.122c8.615 0 15.683-7.307 15.99-16.531l7.449-223.469h-48l7.449 223.469c.307 9.224 7.375 16.531 15.99 16.531z" fill="#734b39"/><path d="m419.07 80c18.642 0 28.93 13.792 28.93 32.727v51.429c0 18.935-13.358 35.844-32 35.844-18.642 0-32-17.065-32-36v-60s1.316-24-24-24z" fill="#d49073"/><path d="m448 112.73v51.43c0 18.93-13.36 35.84-32 35.84a29.943 29.943 0 0 1 -22.99-10.9 38.817 38.817 0 0 1 -9.01-25.1v-4s31.43 8.92 40-16c8.44-24.53 23.52-31.77 23.99-31.99.01.24.01.48.01.72z" fill="none"/><path d="m447.99 112.01c-.47.22-15.55 7.46-23.99 31.99-8.57 24.92-40 16-40 16v-56s1.32-24-24-24h59.07c18.4 0 28.67 13.44 28.92 32.01z" fill="#f7b030"/><path d="m376 200h80v48h-80z" fill="#95573a" transform="matrix(-1 0 0 -1 832 448)"/><g fill="#734b39"><path d="m368 472h-48l-32-128h48z"/><path d="m192 472h-48l32-128h48z"/></g></svg>