<svg id="Layer_1" height="512" viewBox="0 0 512 512" width="512" xmlns="http://www.w3.org/2000/svg" data-name="Layer 1"><path d="m428.99 107.04v382.96h-345.98v-468h264.25v85.04z" fill="#00efd1"/><path d="m347.26 22 81.73 85.04h-81.73z" fill="#fedb41"/><circle cx="237.5" cy="212.47" fill="#00acea" r="98.58"/><g fill="#fedb41"><path d="m365.59 420.04h-225.5a6 6 0 1 1 0-12h225.5a6 6 0 0 1 0 12z"/><path d="m270.72 364.68h-130.63a6 6 0 1 1 0-12h130.63a6 6 0 0 1 0 12z"/><path d="m215.676 252.36a5.97 5.97 0 0 1 -3.614-1.214l-44.762-33.84a6 6 0 0 1 0-9.572l44.761-33.84a6 6 0 0 1 7.237 9.572l-38.43 29.054 38.43 29.054a6 6 0 0 1 -3.623 10.786z"/><path d="m259.324 252.36a6 6 0 0 1 -3.623-10.786l38.43-29.054-38.431-29.054a6 6 0 0 1 7.237-9.572l44.761 33.84a6 6 0 0 1 0 9.572l-44.761 33.84a5.979 5.979 0 0 1 -3.613 1.214z"/><path d="m229.867 269.261a6.009 6.009 0 0 1 -5.94-6.9l15.281-100.94a6 6 0 1 1 11.865 1.8l-15.281 100.94a6 6 0 0 1 -5.925 5.1z"/></g></svg>